<?xml version="1.0" encoding="UTF-8" standalone="no"?>
<!DOCTYPE svg PUBLIC "-//W3C//DTD SVG 1.1//EN" "http://www.w3.org/Graphics/SVG/1.1/DTD/svg11.dtd">
<svg width="100%" height="100%" viewBox="0 0 24 24" version="1.1" xmlns="http://www.w3.org/2000/svg" xmlns:xlink="http://www.w3.org/1999/xlink" xml:space="preserve" xmlns:serif="http://www.serif.com/" style="fill-rule:evenodd;clip-rule:evenodd;stroke-linecap:round;stroke-linejoin:round;stroke-miterlimit:1.5;">
    <path d="M3,20L17.682,20L22,11L15,11L15,6L3,6L3,20Z" style="fill:none;stroke:white;stroke-width:1px;"/>
    <path d="M22,11L7,11L3,20L18,20L22,11Z" style="fill:white;stroke:white;stroke-width:1px;"/>
    <g transform="matrix(1,0,0,1,1,0)">
        <g transform="matrix(1,-0,-0,1,-1,0)">
            <path d="M21.5,7L20,10L18.5,7L20,8.5L21.5,7Z" style="fill:white;"/>
            <path d="M17,5L18.209,5C18.684,5 19.14,5.189 19.476,5.524C19.811,5.86 20,6.316 20,6.791C20,7.351 20,7.962 20,8.5" style="fill:none;stroke:white;stroke-width:1px;"/>
        </g>
    </g>
</svg>
